<svg width="237" height="38" viewBox="0 0 237 38" fill="none" xmlns="http://www.w3.org/2000/svg">
<g clip-path="url(#clip0)">
<path d="M76.1984 6.8124V4.15698H66.8203V17.782H76.1984V15.0259H70.6225V12.0042H75.2615V9.35795H70.6225V6.8124H76.1984Z" fill="#4B286D"/>
<path d="M92.7537 15.0992H86.8867V4.15698H83.0391V17.782H92.7537V15.0992Z" fill="#4B286D"/>
<path d="M123.726 9.35813C121.134 8.7721 120.224 8.70801 120.224 7.66415C120.224 6.69355 121.507 6.40054 122.253 6.40054C123.453 6.40054 124.863 6.68439 126.3 7.42608L127.346 4.91716C125.873 4.11138 123.981 3.76343 122.153 3.76343C118.569 3.76343 116.176 5.22849 116.076 8.0762C115.976 10.6767 118.077 11.6473 119.997 12.0502C121.852 12.4348 123.744 12.7644 123.781 13.8815C123.817 14.907 122.898 15.3466 121.17 15.3466C119.569 15.3466 118.087 14.8338 116.558 14.1837L115.667 16.9032C117.413 17.654 119.187 18.0661 121.025 18.0661C123.572 18.0661 125.418 17.6723 126.792 16.3813C127.738 15.4931 128.047 14.4217 128.047 13.4054C128.047 11.2444 126.71 10.0357 123.726 9.35813Z" fill="#4B286D"/>
<path d="M61.3621 6.84903V4.15698H49.5645V6.84903H53.5486V17.782H57.3689V6.84903H61.3621Z" fill="#4B286D"/>
<path d="M105.87 4.15698V12.8192C105.87 13.4967 105.87 13.689 105.825 13.9454C105.707 14.7695 104.906 15.2457 103.642 15.264C102.705 15.2457 102.014 14.971 101.695 14.4765C101.531 14.2201 101.459 13.7623 101.459 13.0389V4.15698H97.4746V13.5517C97.4746 14.8519 97.6474 15.4379 98.2296 16.1796C99.1938 17.3975 101.068 18.0293 103.651 18.0293H103.733H103.787C107.253 18.0293 109.036 16.6649 109.554 15.3922C109.818 14.7787 109.836 14.4857 109.836 13.2404V4.15698H105.87Z" fill="#4B286D"/>
<path d="M51.3655 0.430339L28.998 4.91709V6.48287L29.0708 6.46456C43.843 2.84769 51.3655 0.677568 51.42 0.659254C51.5019 0.640941 51.5383 0.567688 51.5201 0.521905C51.511 0.457809 51.4473 0.412025 51.3655 0.430339Z" fill="#4B286D"/>
<path d="M32.5915 1.68459C32.9371 1.45568 33.0372 1.60218 32.9371 1.84941C32.7734 2.2523 32.0093 4.68797 26.3788 9.33953C24.9143 10.5482 23.8592 11.235 21.7489 12.4894C25.2145 7.60893 30.2811 3.19544 32.5915 1.68459ZM33.1736 -0.000224913C32.0821 0.0638715 30.0718 1.68459 28.9712 2.64604C24.5687 6.47351 21.3032 9.99881 18.92 13.6889C13.9626 16.3627 7.64076 19.1097 1.35533 21.2615L1.20069 21.3164L0 24.5853L0.691307 24.3198C4.68451 22.7906 11.352 19.9063 17.3918 16.7106C17.0462 17.6263 16.8824 18.4595 16.8824 19.2287C16.8824 19.8056 16.9734 20.3275 17.1644 20.8128C17.5465 21.7742 18.2923 22.5068 19.3293 22.9188C20.8756 23.5415 22.986 23.5506 25.3873 22.8181C31.5363 20.941 38.8314 15.1815 40.4233 14.0369L40.4778 13.9911C40.5415 13.9453 40.5415 13.8721 40.5233 13.8354C40.4869 13.7805 40.4142 13.7713 40.3596 13.808L40.2777 13.8537C38.5676 14.8793 30.2902 19.833 24.9052 21.2798C22.1673 22.0215 20.0752 21.6186 19.2838 20.5106C19.0109 20.1352 18.8745 19.6499 18.8745 19.0913C18.8745 18.0017 19.3839 16.6099 20.3663 15.0624C21.2668 14.5405 22.1127 14.0369 22.8768 13.5516C28.1253 10.5757 34.1833 4.79785 34.438 1.27255C34.438 1.25423 34.438 1.21761 34.438 1.19014C34.438 0.887968 34.3107 0.576642 34.0832 0.33857C33.8558 0.109655 33.5284 -0.0185382 33.1736 -0.000224913Z" fill="#6EBE44"/>
<path d="M28.9257 4.92627L5.39399 10.0265L4.48438 12.4805L28.9985 6.4829L29.0349 6.47374V4.90796L28.9257 4.92627Z" fill="#4B286D"/>
<path d="M130.238 4.15698C131.002 4.15698 131.648 4.77048 131.648 5.5671C131.648 6.38204 131.002 6.99554 130.238 6.99554C129.465 6.99554 128.819 6.38204 128.819 5.5671C128.828 4.77048 129.474 4.15698 130.238 4.15698ZM130.238 6.78493C130.884 6.78493 131.394 6.26301 131.394 5.5671C131.394 4.88951 130.893 4.36758 130.238 4.36758C129.583 4.36758 129.074 4.88951 129.074 5.5671C129.074 6.26301 129.583 6.78493 130.238 6.78493ZM129.693 4.74301H130.329C130.72 4.74301 130.902 4.89867 130.902 5.21915C130.902 5.52132 130.711 5.64036 130.475 5.66783L130.948 6.40036H130.675L130.229 5.68614H129.956V6.40036H129.702V4.74301H129.693ZM129.947 5.48469H130.22C130.448 5.48469 130.648 5.47554 130.648 5.20999C130.648 4.99024 130.457 4.96277 130.284 4.96277H129.947V5.48469Z" fill="#4B286D"/>
<path d="M141.172 4.14795H142.464V17.7822H141.172V4.14795Z" fill="#4B286D"/>
<path d="M144.992 7.92973H146.184V9.62371H146.22C146.657 8.43335 147.967 7.63672 149.349 7.63672C152.096 7.63672 152.933 9.09262 152.933 11.4367V17.7731H151.742V11.629C151.742 9.93503 151.196 8.6531 149.258 8.6531C147.366 8.6531 146.22 10.109 146.184 12.0319V17.7823H144.992V7.92973Z" fill="#4B286D"/>
<path d="M156.954 7.92976H158.946V8.94614H156.954V15.5939C156.954 16.3813 157.072 16.8392 157.918 16.8941C158.264 16.8941 158.6 16.8758 158.937 16.8392V17.8647C158.582 17.8647 158.236 17.9013 157.872 17.9013C156.281 17.9013 155.726 17.3702 155.753 15.6854V8.93699H154.043V7.92976H155.753V4.97217H156.945L156.954 7.92976Z" fill="#4B286D"/>
<path d="M160.919 13.1764C160.938 14.9344 161.847 17.0496 164.139 17.0496C165.886 17.0496 166.832 16.0241 167.214 14.5315H168.406C167.896 16.7658 166.605 18.066 164.139 18.066C161.029 18.066 159.719 15.667 159.719 12.8559C159.719 10.2554 161.029 7.64575 164.139 7.64575C167.287 7.64575 168.542 10.4111 168.442 13.1855H160.919V13.1764ZM167.25 12.16C167.196 10.347 166.068 8.65298 164.139 8.65298C162.184 8.65298 161.101 10.3744 160.919 12.16H167.25Z" fill="#4B286D"/>
<path d="M170.18 7.92969H171.28V10.2372H171.317C171.926 8.65307 173.254 7.71909 175.019 7.79234V8.99186C172.854 8.87282 171.371 10.4844 171.371 12.5263V17.7731H170.18V7.92969Z" fill="#4B286D"/>
<path d="M176.265 7.92973H177.456V9.62371H177.493C177.929 8.43335 179.239 7.63672 180.622 7.63672C183.369 7.63672 184.206 9.09262 184.206 11.4367V17.7731H183.014V11.629C183.014 9.93503 182.468 8.6531 180.531 8.6531C178.639 8.6531 177.493 10.109 177.456 12.0319V17.7823H176.265V7.92973Z" fill="#4B286D"/>
<path d="M186.379 10.9513C186.498 8.64382 188.108 7.64575 190.345 7.64575C192.074 7.64575 193.947 8.17684 193.947 10.8139V16.0424C193.947 16.5002 194.175 16.7658 194.648 16.7658C194.784 16.7658 194.93 16.7291 195.03 16.6833V17.6997C194.766 17.7547 194.575 17.7821 194.248 17.7821C193.029 17.7821 192.847 17.0954 192.847 16.0607H192.81C191.973 17.3426 191.128 18.066 189.245 18.066C187.444 18.066 185.961 17.1686 185.961 15.1817C185.961 12.4164 188.635 12.3156 191.209 12.0135C192.192 11.8944 192.747 11.7662 192.747 10.6766C192.747 9.05587 191.591 8.65298 190.191 8.65298C188.708 8.65298 187.607 9.33973 187.571 10.9421L186.379 10.9513ZM192.747 12.398H192.71C192.556 12.6819 192.028 12.7826 191.701 12.8376C189.672 13.1947 187.153 13.1855 187.153 15.1084C187.153 16.3079 188.217 17.0588 189.336 17.0588C191.155 17.0588 192.765 15.8959 192.747 13.9638V12.398Z" fill="#4B286D"/>
<path d="M198.078 7.92976H200.07V8.94614H198.078V15.5939C198.078 16.3813 198.196 16.8392 199.042 16.8941C199.388 16.8941 199.724 16.8758 200.061 16.8392V17.8647C199.706 17.8647 199.36 17.9013 198.996 17.9013C197.405 17.9013 196.85 17.3702 196.877 15.6854V8.93699H195.167V7.92976H196.877V4.97217H198.069L198.078 7.92976Z" fill="#4B286D"/>
<path d="M201.606 4.14795H202.798V6.08H201.606V4.14795ZM201.606 7.92964H202.798V17.7822H201.606V7.92964Z" fill="#4B286D"/>
<path d="M213.859 12.8559C213.859 15.6853 212.231 18.066 209.23 18.066C206.237 18.066 204.6 15.6761 204.6 12.8559C204.6 10.0357 206.228 7.64578 209.23 7.64578C212.231 7.63662 213.859 10.0265 213.859 12.8559ZM205.8 12.8559C205.8 14.9528 206.937 17.0588 209.23 17.0588C211.522 17.0588 212.668 14.9619 212.668 12.8559C212.668 10.7499 211.531 8.65301 209.23 8.65301C206.937 8.65301 205.8 10.7499 205.8 12.8559Z" fill="#4B286D"/>
<path d="M215.66 7.92973H216.852V9.62371H216.888C217.325 8.43335 218.635 7.63672 220.017 7.63672C222.764 7.63672 223.601 9.09262 223.601 11.4367V17.7731H222.409V11.629C222.409 9.93503 221.864 8.6531 219.926 8.6531C218.034 8.6531 216.888 10.109 216.852 12.0319V17.7823H215.66V7.92973Z" fill="#4B286D"/>
<path d="M225.766 10.9513C225.884 8.64382 227.494 7.64575 229.732 7.64575C231.46 7.64575 233.334 8.17684 233.334 10.8139V16.0424C233.334 16.5002 233.561 16.7658 234.034 16.7658C234.171 16.7658 234.316 16.7291 234.416 16.6833V17.6997C234.153 17.7547 233.962 17.7821 233.634 17.7821C232.415 17.7821 232.233 17.0954 232.233 16.0607H232.197C231.36 17.3426 230.514 18.066 228.631 18.066C226.83 18.066 225.348 17.1686 225.348 15.1817C225.348 12.4164 228.022 12.3156 230.596 12.0135C231.578 11.8944 232.133 11.7662 232.133 10.6766C232.133 9.05587 230.978 8.65298 229.577 8.65298C228.095 8.65298 226.994 9.33973 226.958 10.9421L225.766 10.9513ZM232.142 12.398H232.106C231.951 12.6819 231.424 12.7826 231.096 12.8376C229.068 13.1947 226.548 13.1855 226.548 15.1084C226.548 16.3079 227.613 17.0588 228.731 17.0588C230.551 17.0588 232.161 15.8959 232.142 13.9638V12.398Z" fill="#4B286D"/>
<path d="M235.809 4.14795H237V17.7822H235.809V4.14795Z" fill="#4B286D"/>
<path d="M53.6494 27.8452H56.9604C58.2794 27.8452 59.4709 28.3122 59.4709 29.7773C59.4709 30.6014 58.9252 31.3614 58.1156 31.5445V31.5628C59.1253 31.691 59.7711 32.4602 59.7711 33.4857C59.7711 34.2365 59.5073 35.7291 56.9604 35.7291H53.6494V27.8452ZM54.3953 31.2973H56.9604C58.152 31.2973 58.7251 30.7021 58.7251 29.9604C58.7251 28.9806 58.1247 28.4862 56.9604 28.4862H54.3953V31.2973ZM54.3953 35.0881H56.9604C58.0701 35.0973 59.0252 34.7218 59.0252 33.4674C59.0252 32.4602 58.2703 31.9382 56.9604 31.9382H54.3953V35.0881Z" fill="#4B286D"/>
<path d="M65.4923 35.729H64.8556V34.7034H64.8374C64.4735 35.4634 63.7276 35.8938 62.8817 35.8938C61.4536 35.8938 60.8896 35.0514 60.8896 33.7328V30.0336H61.581V33.742C61.6082 34.7675 61.9994 35.3078 63.1 35.3078C64.2825 35.3078 64.801 34.1815 64.801 33.0186V30.0244H65.4923V35.729Z" fill="#4B286D"/>
<path d="M66.8662 27.8452H67.5575V35.7291H66.8662V27.8452Z" fill="#4B286D"/>
<path d="M73.716 35.2621C73.7069 36.9561 73.061 38 71.2054 38C70.0775 38 68.9587 37.4964 68.8586 36.2785H69.5499C69.7046 37.1209 70.4414 37.414 71.2054 37.414C72.4789 37.414 73.0247 36.654 73.0247 35.2621V34.493H73.0065C72.6881 35.1889 72.0241 35.665 71.2054 35.665C69.3953 35.665 68.6494 34.3648 68.6494 32.7349C68.6494 31.1691 69.5772 29.8689 71.2054 29.8689C72.0241 29.8689 72.7336 30.3817 73.0065 31.0226H73.0247V30.0337H73.716V35.2621ZM73.0247 32.8173C73.0247 31.7002 72.5153 30.4549 71.2054 30.4549C69.8865 30.4549 69.3407 31.6361 69.3407 32.8173C69.3407 33.9711 69.932 35.079 71.2054 35.079C72.4061 35.079 73.0247 33.9711 73.0247 32.8173Z" fill="#4B286D"/>
<path d="M75.0434 31.7734C75.1071 30.4365 76.044 29.8596 77.3357 29.8596C78.3362 29.8596 79.4187 30.1709 79.4187 31.6909V34.7126C79.4187 34.9782 79.546 35.1338 79.828 35.1338C79.9099 35.1338 79.9917 35.1155 80.0463 35.0881V35.6741C79.8917 35.7015 79.7825 35.7199 79.5915 35.7199C78.8911 35.7199 78.782 35.3261 78.782 34.7309H78.7638C78.2817 35.4726 77.7905 35.8938 76.6989 35.8938C75.6529 35.8938 74.7979 35.3811 74.7979 34.2273C74.7979 32.6249 76.3442 32.57 77.836 32.396C78.409 32.3319 78.7274 32.2495 78.7274 31.6268C78.7274 30.6837 78.0543 30.4548 77.2447 30.4548C76.3897 30.4548 75.7529 30.8485 75.7257 31.7825H75.0434V31.7734ZM78.7274 32.6158H78.7001C78.6091 32.7806 78.309 32.8355 78.1179 32.8722C76.9445 33.0828 75.4892 33.0736 75.4892 34.1815C75.4892 34.8775 76.0986 35.3078 76.7535 35.3078C77.8087 35.3078 78.7365 34.6302 78.7274 33.5223V32.6158Z" fill="#4B286D"/>
<path d="M80.9017 30.0336H81.5384V31.3705H81.5566C81.9113 30.4548 82.6754 29.9146 83.6942 29.9512V30.6471C82.4389 30.583 81.5839 31.5078 81.5839 32.689V35.7199H80.8926L80.9017 30.0336Z" fill="#4B286D"/>
<path d="M84.4766 27.8452H85.1679V28.9623H84.4766V27.8452ZM84.4766 30.0336H85.1679V35.7291H84.4766V30.0336Z" fill="#4B286D"/>
<path d="M86.4956 31.7734C86.5593 30.4365 87.4962 29.8596 88.7878 29.8596C89.7884 29.8596 90.8708 30.1709 90.8708 31.6909V34.7126C90.8708 34.9782 90.9982 35.1338 91.2802 35.1338C91.362 35.1338 91.4439 35.1155 91.4985 35.0881V35.6741C91.3438 35.7015 91.2347 35.7199 91.0437 35.7199C90.3433 35.7199 90.2341 35.3261 90.2341 34.7309H90.2159C89.7338 35.4726 89.2426 35.8938 88.1511 35.8938C87.105 35.8938 86.25 35.3811 86.25 34.2273C86.25 32.6249 87.7963 32.57 89.2881 32.396C89.8612 32.3319 90.1795 32.2495 90.1795 31.6268C90.1795 30.6837 89.5064 30.4548 88.6969 30.4548C87.8418 30.4548 87.2051 30.8485 87.1778 31.7825H86.4956V31.7734ZM90.1795 32.6158H90.1613C90.0704 32.7806 89.7702 32.8355 89.5792 32.8722C88.4058 33.0828 86.9504 33.0736 86.9504 34.1815C86.9504 34.8775 87.5598 35.3078 88.2148 35.3078C89.2699 35.3078 90.1977 34.6302 90.1886 33.5223V32.6158H90.1795Z" fill="#4B286D"/>
<path d="M99.5125 31.8193C99.3215 30.9677 98.8121 30.4549 97.9116 30.4549C96.5835 30.4549 95.9195 31.6636 95.9195 32.8814C95.9195 34.0901 96.5744 35.3079 97.9116 35.3079C98.7666 35.3079 99.467 34.6303 99.558 33.6872H100.249C100.058 35.0515 99.1759 35.894 97.9116 35.894C96.1742 35.894 95.2373 34.5113 95.2373 32.8814C95.2373 31.2424 96.1833 29.8689 97.9116 29.8689C99.1214 29.8689 100.049 30.519 100.204 31.8193C100.195 31.8193 99.5125 31.8193 99.5125 31.8193Z" fill="#4B286D"/>
<path d="M106.361 32.8814C106.361 34.5205 105.415 35.894 103.687 35.894C101.95 35.894 101.013 34.5113 101.013 32.8814C101.013 31.2424 101.959 29.8689 103.687 29.8689C105.415 29.8689 106.361 31.2515 106.361 32.8814ZM101.695 32.8814C101.695 34.0901 102.35 35.3079 103.687 35.3079C105.015 35.3079 105.679 34.0901 105.679 32.8814C105.679 31.6636 105.024 30.4549 103.687 30.4549C102.359 30.4549 101.695 31.6636 101.695 32.8814Z" fill="#4B286D"/>
<path d="M107.453 30.0337H108.09V30.9952H108.117C108.481 30.3084 109.072 29.8689 109.973 29.8689C110.719 29.8689 111.392 30.2352 111.601 30.986C111.938 30.2352 112.656 29.8689 113.402 29.8689C114.639 29.8689 115.276 30.519 115.276 31.8742V35.7383H114.585V31.9108C114.585 30.9677 114.23 30.4641 113.247 30.4641C112.056 30.4641 111.71 31.453 111.71 32.5152V35.7383H111.019V31.865C111.028 31.0959 110.71 30.4458 109.836 30.4458C108.645 30.4458 108.163 31.3523 108.154 32.5426V35.72H107.462L107.453 30.0337Z" fill="#4B286D"/>
<path d="M116.658 30.0337H117.295V30.9952H117.322C117.686 30.3084 118.277 29.8689 119.178 29.8689C119.924 29.8689 120.597 30.2352 120.806 30.986C121.143 30.2352 121.861 29.8689 122.607 29.8689C123.844 29.8689 124.481 30.519 124.481 31.8742V35.7383H123.79V31.9108C123.79 30.9677 123.435 30.4641 122.452 30.4641C121.261 30.4641 120.915 31.453 120.915 32.5152V35.7383H120.224V31.865C120.233 31.0959 119.915 30.4458 119.041 30.4458C117.85 30.4458 117.368 31.3523 117.359 32.5426V35.72H116.667L116.658 30.0337Z" fill="#4B286D"/>
<path d="M130.421 35.729H129.784V34.7034H129.766C129.402 35.4634 128.656 35.8938 127.81 35.8938C126.382 35.8938 125.818 35.0514 125.818 33.7328V30.0336H126.51V33.742C126.537 34.7675 126.928 35.3078 128.029 35.3078C129.211 35.3078 129.73 34.1815 129.73 33.0186V30.0244H130.421V35.729Z" fill="#4B286D"/>
<path d="M131.785 30.0337H132.476V31.0226H132.495C132.749 30.3359 133.504 29.8689 134.305 29.8689C135.897 29.8689 136.379 30.7113 136.379 32.0665V35.7383H135.687V32.1855C135.687 31.2058 135.369 30.4641 134.25 30.4641C133.159 30.4641 132.495 31.3065 132.476 32.4144V35.7383H131.785V30.0337Z" fill="#4B286D"/>
<path d="M137.752 27.8452H138.443V28.9623H137.752V27.8452ZM137.752 30.0336H138.443V35.7291H137.752V30.0336Z" fill="#4B286D"/>
<path d="M140.936 30.0336H142.091V30.6196H140.936V34.4562C140.936 34.9141 141 35.1704 141.5 35.2071C141.7 35.2071 141.891 35.1979 142.091 35.1796V35.7748C141.882 35.7748 141.682 35.7931 141.482 35.7931C140.554 35.7931 140.245 35.4818 140.254 34.5112V30.6104H139.271V30.0336H140.254V28.3213H140.945V30.0336H140.936Z" fill="#4B286D"/>
<path d="M142.71 30.0337H143.447L145.311 34.8959L147.058 30.0337H147.749L145.293 36.6082C144.902 37.5696 144.666 37.8443 143.801 37.8443C143.529 37.8351 143.383 37.8351 143.274 37.7894V37.2033C143.438 37.2308 143.592 37.2583 143.747 37.2583C144.356 37.2583 144.502 36.892 144.729 36.3609L144.966 35.7108L142.71 30.0337Z" fill="#4B286D"/>
<path d="M151.688 27.8452H152.379V31.1141H152.397C152.697 30.2992 153.516 29.8688 154.362 29.8688C156.081 29.8688 156.909 31.2698 156.909 32.8814C156.909 34.4929 156.09 35.8939 154.362 35.8939C153.452 35.8939 152.661 35.4177 152.342 34.6486H152.324V35.7291H151.688V27.8452ZM154.371 30.4549C152.906 30.4549 152.379 31.7002 152.379 32.8814C152.379 34.0626 152.888 35.3079 154.371 35.3079C155.69 35.3079 156.226 34.0626 156.226 32.8814C156.217 31.7002 155.681 30.4549 154.371 30.4549Z" fill="#4B286D"/>
<path d="M163.112 32.8814C163.112 34.5205 162.166 35.894 160.438 35.894C158.71 35.894 157.764 34.5113 157.764 32.8814C157.764 31.2424 158.71 29.8689 160.438 29.8689C162.166 29.8689 163.112 31.2515 163.112 32.8814ZM158.446 32.8814C158.446 34.0901 159.101 35.3079 160.438 35.3079C161.775 35.3079 162.43 34.0901 162.43 32.8814C162.43 31.6636 161.775 30.4549 160.438 30.4549C159.101 30.4549 158.446 31.6636 158.446 32.8814Z" fill="#4B286D"/>
<path d="M164.113 31.7734C164.176 30.4365 165.113 29.8596 166.405 29.8596C167.406 29.8596 168.488 30.1709 168.488 31.6909V34.7126C168.488 34.9782 168.615 35.1338 168.897 35.1338C168.979 35.1338 169.061 35.1155 169.116 35.0881V35.6741C168.961 35.7015 168.852 35.7199 168.661 35.7199C167.96 35.7199 167.851 35.3261 167.851 34.7309H167.833C167.351 35.4726 166.86 35.8938 165.768 35.8938C164.722 35.8938 163.867 35.3811 163.867 34.2273C163.867 32.6249 165.414 32.57 166.905 32.396C167.478 32.3319 167.797 32.2495 167.797 31.6268C167.797 30.6837 167.124 30.4548 166.314 30.4548C165.459 30.4548 164.822 30.8485 164.795 31.7825H164.113V31.7734ZM167.797 32.6158H167.779C167.688 32.7806 167.387 32.8355 167.196 32.8722C166.023 33.0828 164.568 33.0736 164.568 34.1815C164.568 34.8775 165.177 35.3078 165.832 35.3078C166.887 35.3078 167.815 34.6302 167.806 33.5223L167.797 32.6158Z" fill="#4B286D"/>
<path d="M169.971 30.0336H170.608V31.3705H170.626C170.981 30.4548 171.745 29.9146 172.764 29.9512V30.6471C171.508 30.583 170.653 31.5078 170.653 32.689V35.7199H169.962L169.971 30.0336Z" fill="#4B286D"/>
<path d="M178.339 35.7291H177.703V34.6486H177.684C177.384 35.3903 176.493 35.8939 175.665 35.8939C173.946 35.8939 173.118 34.4929 173.118 32.8814C173.118 31.2698 173.937 29.8688 175.665 29.8688C176.511 29.8688 177.33 30.2992 177.63 31.1141H177.648V27.8452H178.339V35.7291ZM175.665 35.317C177.13 35.317 177.657 34.0717 177.657 32.8905C177.657 31.7093 177.148 30.464 175.665 30.464C174.346 30.464 173.809 31.7093 173.809 32.8905C173.809 34.0626 174.346 35.317 175.665 35.317Z" fill="#4B286D"/>
</g>
<defs>
<clipPath id="clip0">
<rect width="237" height="38" fill="white"/>
</clipPath>
</defs>
</svg>
